<?xml version="1.0" encoding="UTF-8"?>
<svg version="1.1" xmlns="http://www.w3.org/2000/svg" width="48" height="48">
<path d="M0 0 C15.84 0 31.68 0 48 0 C48 15.84 48 31.68 48 48 C32.16 48 16.32 48 0 48 C0 32.16 0 16.32 0 0 Z " fill="#F4F8F7" transform="translate(0,0)"/>
<path d="M0 0 C15.84 0 31.68 0 48 0 C48 15.84 48 31.68 48 48 C32.16 48 16.32 48 0 48 C0 32.16 0 16.32 0 0 Z M7.6875 11.625 C2.79966651 17.50066335 3.40495357 23.55341902 4 31 C6.43827285 36.46173119 11.59035855 41.29517927 17 44 C27.06416002 44.84337069 27.06416002 44.84337069 36 41 C41.73354026 35.36221824 44.11404421 31.71436975 44.25 23.625 C44.15797335 17.84265865 43.32816387 14.2900753 39.08984375 10.12109375 C32.66657769 4.35064602 29.14394928 3.63756174 20.421875 3.7265625 C14.2912692 4.21645109 11.56720275 7.2728276 7.6875 11.625 Z " fill="#08425B" transform="translate(0,0)"/>
<path d="M0 0 C3.375 1.0625 3.375 1.0625 5.25 2.625 C6.36302221 5.03654811 6.59015207 6.5808253 6.8125 9.1875 C6.998125 10.46625 7.18375 11.745 7.375 13.0625 C9.29564793 14.6524433 9.29564793 14.6524433 11.375 15.0625 C11.375 13.4125 11.375 11.7625 11.375 10.0625 C14.675 10.0625 17.975 10.0625 21.375 10.0625 C21.75 12.75 21.75 12.75 21.375 16.0625 C18.47703047 19.23646662 16.59136727 20.86390943 12.3125 21.5625 C8.31978492 20.88288892 5.57398962 19.68113599 3.125 16.375 C2.02081718 12.97043632 1.73104607 9.62296067 1.375 6.0625 C-0.275 5.7325 -1.925 5.4025 -3.625 5.0625 C-3.955 10.0125 -4.285 14.9625 -4.625 20.0625 C-5.945 20.0625 -7.265 20.0625 -8.625 20.0625 C-8.76072155 17.66475255 -8.85936868 15.27474755 -8.9375 12.875 C-8.97939453 12.20146484 -9.02128906 11.52792969 -9.06445312 10.83398438 C-9.16034515 6.90241151 -8.75301128 5.22911093 -6.33203125 2.078125 C-3.625 0.0625 -3.625 0.0625 0 0 Z " fill="#138D4C" transform="translate(17.625,12.9375)"/>
<path d="M0 0 C2.77324004 0.79793426 4.20368374 2.31403551 5.94140625 4.55859375 C5.61140625 5.54859375 5.28140625 6.53859375 4.94140625 7.55859375 C1.06640625 6.68359375 1.06640625 6.68359375 -0.05859375 5.55859375 C-2.39156808 5.51766438 -4.725646 5.51617652 -7.05859375 5.55859375 C-7.71859375 4.23859375 -8.37859375 2.91859375 -9.05859375 1.55859375 C-5.63334301 -0.72490674 -3.98916663 -0.59506906 0 0 Z " fill="#286DA5" transform="translate(33.05859375,13.44140625)"/>
<path d="M0 0 C0 4.62 0 9.24 0 14 C-1.32 14 -2.64 14 -4 14 C-4.08114106 12.22992286 -4.13925505 10.45877902 -4.1875 8.6875 C-4.22230469 7.70136719 -4.25710938 6.71523438 -4.29296875 5.69921875 C-4 3 -4 3 -2.55078125 1.14453125 C-1 0 -1 0 0 0 Z " fill="#05622D" transform="translate(13,19)"/>
<path d="M0 0 C3.3 0 6.6 0 10 0 C10 1.98 10 3.96 10 6 C9.67 5.34 9.34 4.68 9 4 C8.2575 4.350625 7.515 4.70125 6.75 5.0625 C3.8677274 6.04509293 2.78823655 6.0326802 0 5 C0 3.35 0 1.7 0 0 Z " fill="#2FBC71" transform="translate(29,23)"/>
<path d="M0 0 C1.4540625 0.0309375 1.4540625 0.0309375 2.9375 0.0625 C2.9375 1.0525 2.9375 2.0425 2.9375 3.0625 C1.2875 3.7225 -0.3625 4.3825 -2.0625 5.0625 C-2.7225 3.7425 -3.3825 2.4225 -4.0625 1.0625 C-3.0625 0.0625 -3.0625 0.0625 0 0 Z " fill="#0E2551" transform="translate(28.0625,13.9375)"/>
</svg>
